<?xml version="1.0" encoding="utf-8"?>
<!-- Generator: Adobe Illustrator 25.1.0, SVG Export Plug-In . SVG Version: 6.00 Build 0)  -->
<svg version="1.1" id="Layer_1" xmlns="http://www.w3.org/2000/svg" xmlns:xlink="http://www.w3.org/1999/xlink" x="0px" y="0px"
	 viewBox="0 0 605.9 564.8" style="enable-background:new 0 0 605.9 564.8;" xml:space="preserve">
<style type="text/css">
	.st0{fill:#F2F2F2;}
	.st1{fill:#2F2E41;}
	.st2{fill:#A8A8A8;}
	.st3{fill:#4F4F4F;}
	.st4{fill:#CCCCCC;}
	.st5{fill:#E6E6E6;}
	.st6{fill:#3F3D56;}
	.st7{fill:#FFFFFF;}
</style>
<path class="st0" d="M205.1,254c-70.1,0-127-56.9-127-127S135,0,205.1,0s127,56.9,127,127l0,0C332,197.1,275.2,253.9,205.1,254z
	 M205.1,2c-69,0-125,56-125,125s56,125,125,125s125-56,125-125S274.1,2,205.1,2L205.1,2z"/>
<path class="st1" d="M125.5,131.6c-3.5-12.9,24.9-23.9,32.4-13.5c1-1.5,4.9-2.4,6.6-1.9c1.7,0.6,3.3,1.5,4.7,2.7
	c2,1.5,4,3.1,5.3,5.3c1.2,2.2,1.4,5.2-0.2,7.1c-1.3,1.5-5.2,2.5-7.1,2.9c-1.4,0.3-2.5,0.5-3.5,0.7c-0.9-1.3-1.3-2.9-1.2-4.5
	c-1.4,0.9-2.2,2.4-2.4,4c0,0.3,11.1,41.3,11.1,41.3c-1.3,0.8-2.7,1.4-4.2,1.9c-2.9-4.4-5.1-9.2-6.6-14.3c-0.3,3.4-0.3,6.8,0.1,10.2
	c0.2,1.9,0.5,3.8,1,5.6c-13.2,2.9-33.1,1.9-41.8-10.2l0-0.2c0-1.1-1-2.1-2.1-2c-0.8,0-1.6,0.5-1.9,1.3c-0.2,0.5-0.4,1-0.6,1.4
	C112.6,160.2,115.8,149.8,125.5,131.6z"/>
<polygon class="st2" points="187.9,543.1 197.7,543 202.1,504.1 187.5,504.2 "/>
<path class="st1" d="M217.5,555.2l-15.7-10.7l-0.1-7.1l-3.4,0.2l-10.5,0.7l-2.6,0.2l-1.9,24.9l7.4-0.1l1.3-7l3.4,7l19.6-0.2
	c2.4,0,4.4-2,4.4-4.4C219.4,557.3,218.7,556,217.5,555.2L217.5,555.2z"/>
<polygon class="st2" points="89.6,539.3 99.3,540.8 109.8,503 95.4,500.8 "/>
<path class="st1" d="M116.9,555.9l-13.9-13l1.1-7l-3.4-0.3l-10.5-1l-2.6-0.2l-5.8,24.3l7.3,1.1l2.4-6.7l2.3,7.4l19.4,2.9
	c2.4,0.4,4.7-1.3,5-3.7C118.5,558.3,118,556.9,116.9,555.9L116.9,555.9z"/>
<path class="st1" d="M183.3,271.3l28,50.1c0,0-1.2,103,2.5,106.8s7.1,7.2,3.7,7.2s-7.4,8.2-7.4,8.2l-7,77.4h-17.5
	c0,0-12.3-45.6-9.7-71.6l-20.8-95.1c0,0-14.9,89.9-17.6,92.6s-4.3,2.7-1.5,5.4s0,8.8,0,8.8l-29.5,61.2l-16-2c0,0,2.8-50,12.4-71.4
	V347.3c-0.7,8.7,33.3-79.3,12.5-72.7C122,272.5,183.3,271.3,183.3,271.3z"/>
<path class="st3" d="M159.6,175.8l-28.4-6l-5.6,11.4l-19,11c0,0,12.2,50.1,12.2,57.1c-0.2,17.9-28.8,58-7.2,54.9
	c21.6-3.1,26-16,32.9-14c28.6,8.4,62.6,7.5,51.1-4c-11.6-11.6-9-88.6-9-88.6l-22.4-10.6L159.6,175.8z"/>
<path class="st2" d="M106,357.6c2.4-2.8,2.1-7-0.7-9.5c-0.3-0.2-0.6-0.4-0.9-0.6l4.8-23.3l-11-6.6l-3.1,32.6
	c-1.4,2.8-0.7,6.1,1.6,8.2c2.7,2.4,6.8,2.1,9.2-0.7l0,0C105.9,357.7,105.9,357.7,106,357.6z"/>
<path class="st3" d="M99.9,248.5l0.9-42.5c0.2-11.1,9.4-19.8,20.4-19.6c0.2,0,0.3,0,0.5,0l0,0c8.7,0.4,6.4,3.9,8.7,12.3
	c3.7,13.6,5.2,21.5,4.3,23.4c-0.3,0.6-0.6,1.3-0.9,1.9c-1.6,3.1-2.8,5.3,0.2,7.4c1.2,0.8,2.4,1.4,3.8,1.8c1.3,0.5,2.3,0.8,2.3,1.6
	c0.1,0.7-0.8,1.5-3,2.8c-6.1,3.5-11.4,24.3-11.4,24.5L108,336.1l-14.1-0.7L99.9,248.5z"/>
<path class="st2" d="M276.9,306.6c-3.7-0.5-6.2-3.9-5.8-7.5c0-0.4,0.1-0.7,0.2-1.1l-19.1-14.2l3.8-12.2l24.1,22.3
	c2.9,1.1,4.6,4,4.3,7.1c-0.4,3.6-3.7,6.1-7.3,5.7C277,306.6,277,306.6,276.9,306.6z"/>
<path class="st3" d="M271,282l-10,9.9l-62.6-43.3c-0.2-0.1-18-12.1-24.9-10.6c-2.6,0.5-3.7,0.5-4.1,0c-0.5-0.6,0-1.5,0.7-2.7
	c0.7-1.2,1.3-2.5,1.6-3.8c0.8-3.5-1.6-4.4-4.8-5.6c-0.6-0.2-1.3-0.5-1.9-0.8c-1.9-0.8-6.1-7.6-12.4-20.3c-3.9-7.8-7.9-8.8-1.7-14.9
	l0,0c7.9-7.8,20.6-7.7,28.3,0.2c0.1,0.1,0.2,0.2,0.3,0.4l29.1,31L271,282z"/>
<circle class="st2" cx="147.6" cy="146.2" r="23.2"/>
<path class="st1" d="M112.8,133.4c-3.5-12.9,24.9-23.9,32.4-13.5c1-1.5,4.9-2.4,6.6-1.9c1.7,0.6,3.3,1.5,4.7,2.7
	c2,1.5,4,3.1,5.3,5.3c1.2,2.2,1.4,5.2-0.2,7.1c-1.3,1.5-5.2,2.5-7.1,2.9c-1.4,0.3-2.5,0.5-3.5,0.7c-0.9-1.3-1.3-2.9-1.2-4.5
	c-1.4,0.9-2.2,2.4-2.4,4c0,0.3,11.1,41.3,11.1,41.3c-1.3,0.8-2.7,1.4-4.2,1.9c-2.9-4.4-5.1-9.2-6.6-14.3c-0.3,3.4-0.3,6.8,0.1,10.2
	c0.2,1.9,0.5,3.8,1,5.6c-13.2,2.9-33.1,1.9-41.8-10.2l0-0.2c0-1.1-1-2.1-2.1-2c-0.8,0-1.6,0.5-1.9,1.3c-0.2,0.5-0.4,1-0.6,1.4
	C99.9,162,103.2,151.6,112.8,133.4z"/>
<path class="st1" d="M121.5,121.2"/>
<path class="st0" d="M54.3,547.2c-1.3,0.1-2.3-0.9-2.4-2.2c0-0.7,0.2-1.3,0.7-1.8l0.2-0.6c0,0,0-0.1-0.1-0.1c-1.3-3.1-4.9-4.5-8-3.2
	c-1.5,0.6-2.6,1.8-3.3,3.3c-1.8,4.4-4.2,8.9-4.8,13.5c-0.3,2.1-0.1,4.2,0.3,6.2c-4.3-9.4-6.6-19.7-6.6-30c0-2.6,0.1-5.2,0.4-7.8
	c0.2-2.1,0.6-4.2,1-6.3c2.3-11.3,7.3-22,14.5-31c3.5-1.9,6.3-4.8,8.1-8.4c0.6-1.3,1.1-2.6,1.3-4.1c-0.4,0.1-1.5-5.9-1.2-6.3
	c-0.5-0.8-1.5-1.2-2.1-2.1c-3-4-7.1-3.3-9.2,2.2c-4.6,2.3-4.6,6.1-1.8,9.8c1.8,2.3,2,5.5,3.6,8c-0.2,0.2-0.3,0.4-0.5,0.6
	c-3,3.8-5.5,7.9-7.7,12.2c0.5-4.8-0.1-9.7-1.8-14.2c-1.7-4.2-5-7.8-7.9-11.4c-2.1-2.7-6.1-3.2-8.8-1.1c-1.3,1-2.2,2.5-2.4,4.2
	c0,0.1,0,0.1,0,0.2c0.4,0.2,0.8,0.5,1.3,0.8c1.4,0.9,1.8,2.9,0.8,4.3c-0.5,0.7-1.2,1.2-2.1,1.3l-0.1,0c0.2,1.5,0.4,3.1,0.8,4.6
	C13,502,21,507.2,32.4,507.5c0.3,0.1,0.5,0.3,0.7,0.4c-2.2,6.1-3.5,12.5-4,19c-0.3,3.8-0.3,7.7,0.1,11.5l0-0.1
	c-0.8-4.3-3.1-8.1-6.4-10.9c-4.9-4.1-11.9-5.6-17.3-8.8c-1.6-1.1-3.8-0.6-4.9,1.1c-0.5,0.7-0.6,1.5-0.5,2.4l0,0.1
	c0.8,0.3,1.6,0.7,2.3,1.1c0.4,0.2,0.8,0.5,1.3,0.8c1.4,0.9,1.8,2.9,0.8,4.3c-0.5,0.7-1.2,1.2-2.1,1.3l-0.1,0c0,0-0.1,0-0.1,0
	c1.4,3.2,3.3,6.2,5.6,8.8c2.3,12.5,12.3,13.7,22.9,10h0c1.2,5.1,2.9,10,5,14.7h18c0.1-0.2,0.1-0.4,0.2-0.6c-1.7,0.1-3.3,0-5-0.3
	c1.3-1.6,2.7-3.3,4-4.9c0,0,0.1-0.1,0.1-0.1c0.7-0.8,1.4-1.7,2-2.5l0,0C55.2,552.2,54.9,549.7,54.3,547.2L54.3,547.2z"/>
<path class="st4" d="M0.7,563.7c0,0.7,0.5,1.2,1.2,1.2c0,0,0,0,0,0h253.3c0.7,0,1.2-0.5,1.2-1.2s-0.5-1.2-1.2-1.2H1.9
	C1.2,562.5,0.7,563,0.7,563.7C0.7,563.7,0.7,563.7,0.7,563.7z"/>
<path class="st0" d="M554.1,57.1H298.6c-12.8,0-23.1,10.3-23.1,23.1c0,0,0,0,0,0V466c0,12.8,10.3,23.1,23.1,23.1h255.5
	c12.8,0,23.1-10.3,23.1-23.1c33.9-131.1,34.9-259.8,0-385.8C577.2,67.5,566.9,57.1,554.1,57.1z M306.4,435.7c0,2.1-1.7,3.7-3.7,3.7
	l0,0H293c-2.1,0-3.7-1.7-3.7-3.7l0,0V426c0-2.1,1.7-3.7,3.7-3.7l0,0h9.7c2.1,0,3.7,1.7,3.7,3.7l0,0V435.7z M306.4,397.5
	c0,2.1-1.7,3.7-3.7,3.7l0,0H293c-2.1,0-3.7-1.7-3.7-3.7l0,0v-9.7c0-2.1,1.7-3.7,3.7-3.7l0,0h9.7c2.1,0,3.7,1.7,3.7,3.7l0,0V397.5z
	 M306.4,359.4c0,2.1-1.7,3.7-3.7,3.7l0,0H293c-2.1,0-3.7-1.7-3.7-3.7l0,0v-9.7c0-2.1,1.7-3.7,3.7-3.7l0,0h9.7c2.1,0,3.7,1.7,3.7,3.7
	l0,0V359.4z M306.4,321.2c0,2.1-1.7,3.7-3.7,3.7l0,0H293c-2.1,0-3.7-1.7-3.7-3.7v0v-9.7c0-2.1,1.7-3.7,3.7-3.7l0,0h9.7
	c2.1,0,3.7,1.7,3.7,3.7v0V321.2z M306.4,283.1c0,2.1-1.7,3.7-3.7,3.7l0,0H293c-2.1,0-3.7-1.7-3.7-3.7l0,0v-9.7
	c0-2.1,1.7-3.7,3.7-3.7l0,0h9.7c2.1,0,3.7,1.7,3.7,3.7l0,0V283.1z M306.4,245c0,2.1-1.7,3.7-3.7,3.7l0,0H293c-2.1,0-3.7-1.7-3.7-3.7
	v0v-9.7c0-2.1,1.7-3.7,3.7-3.7l0,0h9.7c2.1,0,3.7,1.7,3.7,3.7v0V245z M306.4,206.8c0,2.1-1.7,3.7-3.7,3.7l0,0H293
	c-2.1,0-3.7-1.7-3.7-3.7v0v-9.7c0-2.1,1.7-3.7,3.7-3.7l0,0h9.7c2.1,0,3.7,1.7,3.7,3.7v0V206.8z M306.4,168.7c0,2.1-1.7,3.7-3.7,3.7
	l0,0H293c-2.1,0-3.7-1.7-3.7-3.7v0V159c0-2.1,1.7-3.7,3.7-3.7l0,0h9.7c2.1,0,3.7,1.7,3.7,3.7v0V168.7z M306.4,130.5
	c0,2.1-1.7,3.7-3.7,3.7l0,0H293c-2.1,0-3.7-1.7-3.7-3.7v0v-9.7c0-2.1,1.7-3.7,3.7-3.7l0,0h9.7c2.1,0,3.7,1.7,3.7,3.7v0V130.5z"/>
<path d="M291.4,77.7h12.8c1.2,0,2.2,1,2.2,2.2v12.8c0,1.2-1,2.2-2.2,2.2h-12.8c-1.2,0-2.2-1-2.2-2.2V79.9
	C289.2,78.7,290.2,77.7,291.4,77.7z"/>
<path class="st5" d="M527.5,126.7H340.9c-0.6,0-1-0.4-1-1s0.4-1,1-1h186.6c0.6,0,1,0.4,1,1S528.1,126.7,527.5,126.7z"/>
<path class="st5" d="M527.5,89h-53.1c-0.6,0-1-0.4-1-1c0-0.6,0.4-1,1-1h53.1c0.6,0,1,0.4,1,1C528.5,88.5,528.1,89,527.5,89z"/>
<path class="st5" d="M527.5,164.4H340.9c-0.6,0-1-0.4-1-1s0.4-1,1-1h186.6c0.6,0,1,0.4,1,1S528.1,164.4,527.5,164.4z"/>
<path class="st5" d="M527.5,202.1H340.9c-0.6,0-1-0.4-1-1s0.4-1,1-1h186.6c0.6,0,1,0.4,1,1S528.1,202.1,527.5,202.1z"/>
<path class="st5" d="M527.5,239.8H340.9c-0.6,0-1-0.4-1-1s0.4-1,1-1h186.6c0.6,0,1,0.4,1,1S528.1,239.8,527.5,239.8z"/>
<path class="st5" d="M527.5,277.5H340.9c-0.6,0-1-0.4-1-1c0-0.6,0.4-1,1-1h186.6c0.6,0,1,0.4,1,1
	C528.5,277.1,528.1,277.5,527.5,277.5z"/>
<path class="st5" d="M527.5,315.3H340.9c-0.6,0-1-0.4-1-1c0-0.6,0.4-1,1-1h186.6c0.6,0,1,0.4,1,1
	C528.5,314.8,528.1,315.3,527.5,315.3z"/>
<path class="st5" d="M527.5,353H340.9c-0.6,0-1-0.4-1-1s0.4-1,1-1h186.6c0.6,0,1,0.4,1,1S528.1,353,527.5,353z"/>
<path class="st5" d="M527.5,390.7H340.9c-0.6,0-1-0.4-1-1s0.4-1,1-1h186.6c0.6,0,1,0.4,1,1S528.1,390.7,527.5,390.7z"/>
<path class="st5" d="M527.5,428.4H340.9c-0.6,0-1-0.4-1-1s0.4-1,1-1h186.6c0.6,0,1,0.4,1,1S528.1,428.4,527.5,428.4z"/>
<path class="st4" d="M499.9,117.9H371.2c-2.1,0-3.8-1.7-3.8-3.8c0-2.1,1.7-3.8,3.8-3.8c0,0,0,0,0,0h128.7c2.1,0,3.8,1.7,3.8,3.8
	C503.7,116.2,502,117.9,499.9,117.9z"/>
<path class="st4" d="M499.9,155.6H371.2c-2.1,0-3.8-1.7-3.8-3.8c0-2.1,1.7-3.8,3.8-3.8c0,0,0,0,0,0h128.7c2.1,0,3.8,1.7,3.8,3.8
	C503.7,153.9,502,155.6,499.9,155.6z"/>
<path class="st4" d="M499.9,193.3H371.2c-2.1,0-3.8-1.7-3.8-3.8c0-2.1,1.7-3.8,3.8-3.8c0,0,0,0,0,0h128.7c2.1,0,3.8,1.7,3.8,3.8
	C503.7,191.6,502,193.3,499.9,193.3z"/>
<path class="st4" d="M499.9,231H371.2c-2.1,0-3.8-1.7-3.8-3.8c0-2.1,1.7-3.8,3.8-3.8c0,0,0,0,0,0h128.7c2.1,0,3.8,1.7,3.8,3.8
	C503.7,229.3,502,231,499.9,231z"/>
<path class="st4" d="M499.9,268.7H371.2c-2.1,0-3.8-1.7-3.8-3.8c0-2.1,1.7-3.8,3.8-3.8c0,0,0,0,0,0h128.7c2.1,0,3.8,1.7,3.8,3.8
	C503.7,267,502,268.7,499.9,268.7z"/>
<path class="st4" d="M499.9,306.5H371.2c-2.1,0-3.8-1.7-3.8-3.8c0-2.1,1.7-3.8,3.8-3.8c0,0,0,0,0,0h128.7c2.1,0,3.8,1.7,3.8,3.8
	C503.7,304.8,502,306.5,499.9,306.5z"/>
<path class="st4" d="M499.9,344.2H371.2c-2.1,0-3.8-1.7-3.8-3.8c0-2.1,1.7-3.8,3.8-3.8c0,0,0,0,0,0h128.7c2.1,0,3.8,1.7,3.8,3.8
	C503.7,342.5,502,344.2,499.9,344.2z"/>
<path class="st4" d="M499.9,381.9H371.2c-2.1,0-3.8-1.7-3.8-3.8c0-2.1,1.7-3.8,3.8-3.8c0,0,0,0,0,0h128.7c2.1,0,3.8,1.7,3.8,3.8
	C503.7,380.2,502,381.9,499.9,381.9z"/>
<path class="st4" d="M499.9,419.6H371.2c-2.1,0-3.8-1.7-3.8-3.8s1.7-3.8,3.8-3.8h128.7c2.1,0,3.8,1.7,3.8,3.8S502,419.6,499.9,419.6
	z"/>
<path class="st6" d="M383.6,89.4h-33.3c-0.6,0-1,0.4-1,1s0.4,1,1,1h15.7V124c0,0.6,0.4,1,1,1s1-0.4,1-1v-17c0-8.6,7-15.7,15.7-15.7
	l0,0l0,0c0.6,0,1-0.4,1-1S384.1,89.4,383.6,89.4z"/>
<path class="st6" d="M504.5,427.5c-0.6,0-7.6-0.4-7.6-1l6.6-33.3c0-0.6,0.4-1,1-1s1,0.4,1,1v33.3
	C505.5,427.1,505.1,427.5,504.5,427.5z"/>
<path class="st5" d="M580.1,80.2c0-12.8-10.3-23.1-23.1-23.1H298.5c10.5,0,136,7.4,216,16.7c27.4,3.2,49.6,23.5,55.3,50.4
	c23.5,111.9,19.2,225.9-10.7,341.8c0,12.8-10.3,23.1-23.1,23.1h21c12.8,0,23.1-10.3,23.1-23.1C614,334.9,615,206.2,580.1,80.2z"/>
<path class="st7" d="M570.4,477.7l-1.9-0.5c34.2-132.3,34.2-261.9,0-385.2c-7.2-13.1-20.6-21.6-35.5-22.7l-102.5-7.3l0.1-2
	l102.5,7.3c15.6,1.1,29.7,10,37.2,23.8l0.1,0.2c17.3,62.3,26,126.6,25.8,191.3C596.1,346.3,587.4,411.9,570.4,477.7z"/>
</svg>
