<svg id="Layer_1" data-name="Layer 1" xmlns="http://www.w3.org/2000/svg" viewBox="0 0 50.85 39.24"><path d="M980,515.84a21.12,21.12,0,0,1-1,11.51c-5.3,13.21-24.38,17.13-29,16.64a23.89,23.89,0,0,0-7.92.4,16.66,16.66,0,0,1-10.49-1c-1.06-.47-2.17-1.07-2-2.46s1.34-1.79,2.44-2.08a18.31,18.31,0,0,1,10.92.9c5.11,1.87,8.51,0,11.61-3.82a89.66,89.66,0,0,0,6.19-9.2,49.36,49.36,0,0,1,11.85-13.4c2.88-2.2,1.89-3.34-.57-4.49-4.89-2.28-10-2.09-15-.65-9.36,2.71-16.86,7.79-20.24,17.51-.82,2.33-.7,4.57,1.15,6.39s4.3,2.07,6.75,1.09a21.52,21.52,0,0,0,12.05-11.64c.74-1.65,1.27-3.56-.24-5s-3.34-.86-5-.12a17.9,17.9,0,0,0-6.12,5.09c-.68.8-.91,2.18-2.4,2.13.93-4.36,7.28-9.72,11.41-9.66,2.95,0,4.84,2,4.87,5.2.08,7.92-10.68,17.21-18.47,15.94a6.52,6.52,0,0,1-5.67-6.62c-.17-5.14,2.45-9.1,5.75-12.53,6.28-6.54,14.15-9.83,23.17-10.4a5,5,0,0,1,1.82.25c1,.21,2.71.36,5.3,1a17.2,17.2,0,0,1,5.44,2.25,7.31,7.31,0,0,1,.9.85h0l1.44,2.83m-26.93,28.15a2.2,2.2,0,0,0,2.08,1.34c12.83,1.13,25.76-12.35,24-25.06-.19-1.38-.2-3.18-1.64-3.6-1.62-.47-2.24,1.39-3,2.45C967.08,525,962,535,951.94,540.87Z" transform="translate(-929.51 -505.58)"/><path d="M948.83,541.77" transform="translate(-929.51 -505.58)"/></svg>