<svg id="Layer_1" data-name="Layer 1" xmlns="http://www.w3.org/2000/svg" viewBox="0 0 132.34 66.35"><defs><style>.cls-1{fill:#231f20;}</style></defs><path class="cls-1" d="M273.48,147a31.62,31.62,0,0,0-2.59,3.09,21.22,21.22,0,0,1,4.66,3.46A21.55,21.55,0,0,1,279,158a21.11,21.11,0,0,1,2.14,5.19,22.27,22.27,0,0,1,.74,5.72,26.9,26.9,0,0,1-.51,5.21,22.17,22.17,0,0,1-1.62,4.94,19.67,19.67,0,0,1-2.8,4.37,17.24,17.24,0,0,1-4.06,3.5,20.36,20.36,0,0,1-5.4,2.34,25.11,25.11,0,0,1-6.82.85,31.43,31.43,0,0,1-6.4-.63q-3-.61-5.82-1.37a18.14,18.14,0,0,1-4.69,2.25,18.86,18.86,0,0,1-5.74.81,9.32,9.32,0,0,1-2.26-.24,4.89,4.89,0,0,1-1.54-.65,2.77,2.77,0,0,1-.89-1,2.32,2.32,0,0,1-.29-1.13,2.68,2.68,0,0,1,.34-1.32,3.26,3.26,0,0,1,1.06-1.1,5.61,5.61,0,0,1,1.81-.75,10.31,10.31,0,0,1,2.57-.28,19.09,19.09,0,0,1,4.05.43q2,.43,4.11,1a23.3,23.3,0,0,0,3.72-4.41,59.17,59.17,0,0,0,3.22-5.63q1.54-3,3-6.38t3.17-6.71c1.12-2.25,2.34-4.44,3.65-6.6a43.84,43.84,0,0,1,4.41-6.06,22.28,22.28,0,0,0-4.52-1.38,26.29,26.29,0,0,0-5.22-.49A30.59,30.59,0,0,0,246,151.1a27.4,27.4,0,0,0-5,2.86,21.66,21.66,0,0,0-3.85,3.55,15.54,15.54,0,0,0-2.48,4,10.44,10.44,0,0,0-.88,4.13,6.25,6.25,0,0,0,.53,2.54,6.69,6.69,0,0,0,1.45,2.1,6.78,6.78,0,0,0,2.17,1.43,7,7,0,0,0,2.73.53A10.33,10.33,0,0,0,243,172a17.39,17.39,0,0,0,2.15-.66,17.05,17.05,0,0,0,1.92-.85c.6-.3,1.12-.59,1.56-.86s.8-.49,1-.67.38-.27.4-.29l.89,1.17c-.87.58-1.78,1.13-2.71,1.66a30.1,30.1,0,0,1-2.91,1.42,20.27,20.27,0,0,1-3.12,1,14.47,14.47,0,0,1-3.28.37,8.92,8.92,0,0,1-3.18-.57,8.1,8.1,0,0,1-2.63-1.61,7.84,7.84,0,0,1-1.79-2.49,7.49,7.49,0,0,1-.67-3.2,11.12,11.12,0,0,1,.9-4.21,19.11,19.11,0,0,1,2.59-4.35,24.79,24.79,0,0,1,4.14-4.11,29.11,29.11,0,0,1,5.52-3.43,32.23,32.23,0,0,1,6.76-2.37,34.19,34.19,0,0,1,7.87-.88,27.53,27.53,0,0,1,5.72.57,24.8,24.8,0,0,1,5,1.63,33.17,33.17,0,0,1,3.42-3.17ZM237.91,189.7a12.92,12.92,0,0,0,4.13-.63,12.54,12.54,0,0,0,3.49-1.79c-1.22-.32-2.39-.58-3.5-.79a16.62,16.62,0,0,0-3.21-.32,7.17,7.17,0,0,0-3.24.57c-.71.38-1.07.83-1.07,1.37a1.35,1.35,0,0,0,.77,1.12A5.36,5.36,0,0,0,237.91,189.7ZM278.85,167a20.24,20.24,0,0,0-.59-4.93,17.53,17.53,0,0,0-1.71-4.34,16.59,16.59,0,0,0-2.77-3.65,16.78,16.78,0,0,0-3.76-2.81,55.78,55.78,0,0,0-3.7,6.18q-1.67,3.26-3.14,6.6c-1,2.23-1.95,4.43-2.9,6.62s-1.93,4.28-3,6.28A48.45,48.45,0,0,1,254,182.5,23.33,23.33,0,0,1,249.9,187c1.49.41,3,.77,4.45,1.07a22.5,22.5,0,0,0,4.6.46,20.86,20.86,0,0,0,8.63-1.68,17.71,17.71,0,0,0,6.23-4.59,19.46,19.46,0,0,0,3.77-6.84A27.26,27.26,0,0,0,278.85,167Z" transform="translate(-230.67 -146.06)"/><path class="cls-1" d="M292.51,168.49c-.24.48-.58,1.12-1,1.91s-.91,1.65-1.41,2.59-1,1.92-1.53,2.95-1,2-1.4,3a27.21,27.21,0,0,0-1,2.74,7.74,7.74,0,0,0-.39,2.17,1.43,1.43,0,0,0,.33,1.1,1.39,1.39,0,0,0,.95.3,3.9,3.9,0,0,0,2.23-.75,12.45,12.45,0,0,0,2.15-2,22.78,22.78,0,0,0,2.1-2.77c.69-1,1.38-2.08,2.06-3.14l1,.78q-.81,1.44-1.83,3.09a21.37,21.37,0,0,1-2.27,3,12.25,12.25,0,0,1-2.75,2.32,6.2,6.2,0,0,1-3.28.92,3.29,3.29,0,0,1-2.57-1,3.79,3.79,0,0,1-.89-2.59,9.9,9.9,0,0,1,.87-3.9,26.17,26.17,0,0,1,2.15-4,41.91,41.91,0,0,1,2.82-3.83c1-1.22,1.94-2.34,2.79-3.34Zm5.21-6.18a2.85,2.85,0,0,1-.28,1.16,4.33,4.33,0,0,1-.71,1.07,4.16,4.16,0,0,1-1,.78,2.14,2.14,0,0,1-1.06.3.83.83,0,0,1-.72-.34,1.4,1.4,0,0,1-.25-.85,4.13,4.13,0,0,1,.16-1.06,4.39,4.39,0,0,1,.51-1.15,3.66,3.66,0,0,1,.8-.94,1.68,1.68,0,0,1,1.09-.39,1.32,1.32,0,0,1,1,.45A1.39,1.39,0,0,1,297.72,162.31Z" transform="translate(-230.67 -146.06)"/><path class="cls-1" d="M317.7,168.49q-.36.72-1,1.89c-.43.78-.9,1.64-1.4,2.58s-1,1.92-1.52,2.94-1,2-1.39,3a28.19,28.19,0,0,0-1,2.75,7.51,7.51,0,0,0-.4,2.19c0,.59.11,1,.35,1.15a1.42,1.42,0,0,0,.9.27,3.38,3.38,0,0,0,1.66-.48,9,9,0,0,0,1.67-1.22,17.53,17.53,0,0,0,1.6-1.7c.52-.63,1-1.27,1.46-1.91s.86-1.25,1.24-1.83l.94-1.49,1,.78q-.47.89-1.11,1.92c-.43.68-.89,1.38-1.4,2.07s-1.07,1.37-1.66,2a14.49,14.49,0,0,1-1.88,1.73,9,9,0,0,1-2.07,1.19,5.81,5.81,0,0,1-2.23.45,2.94,2.94,0,0,1-2.45-1,4.12,4.12,0,0,1-.78-2.59c0-.08,0-.24,0-.49a2.91,2.91,0,0,1,.07-.6,24.41,24.41,0,0,1-2.66,2.9,14.47,14.47,0,0,1-2.45,1.81,9.29,9.29,0,0,1-2.28.93,9.43,9.43,0,0,1-2.11.26,5.43,5.43,0,0,1-2-.35,4.89,4.89,0,0,1-1.65-1A4.76,4.76,0,0,1,294,185a5.85,5.85,0,0,1-.4-2.26,11,11,0,0,1,.71-3.63,16.32,16.32,0,0,1,2.51-4.41,20.84,20.84,0,0,1,3.19-3.43A19.23,19.23,0,0,1,303.3,169a13.6,13.6,0,0,1,3.05-1.21,10.76,10.76,0,0,1,2.58-.36,7.21,7.21,0,0,1,3.87.85,3.63,3.63,0,0,1,1.59,2.6c.37-.46.76-.92,1.17-1.39l1.25-1.42Zm-8.54,10.58c.24-.39.53-.89.89-1.49s.72-1.23,1.11-1.87l1.14-1.85c.37-.59.7-1.09,1-1.5,0-.17,0-.44-.07-.81a3.38,3.38,0,0,0-.38-1.12,2.69,2.69,0,0,0-1-1A3.52,3.52,0,0,0,310,169a8,8,0,0,0-1.93.27,10,10,0,0,0-2.29.89,15.49,15.49,0,0,0-2.49,1.65,19.3,19.3,0,0,0-2.56,2.56,20.48,20.48,0,0,0-3,4.64,10.28,10.28,0,0,0-1,4.18,3.71,3.71,0,0,0,.72,2.45,2.53,2.53,0,0,0,2.06.87,6.2,6.2,0,0,0,2.87-.69,11,11,0,0,0,2.5-1.76,23.47,23.47,0,0,0,2.23-2.41Z" transform="translate(-230.67 -146.06)"/><path class="cls-1" d="M338.32,177.4c-.28.41-.6,1-1,1.65s-.83,1.45-1.33,2.26-1.05,1.63-1.65,2.46a15.48,15.48,0,0,1-2,2.26,10.51,10.51,0,0,1-2.32,1.64,5.9,5.9,0,0,1-2.67.64,4.5,4.5,0,0,1-1.48-.24,3.26,3.26,0,0,1-1.22-.74,3.37,3.37,0,0,1-.84-1.23,4.66,4.66,0,0,1-.31-1.74,8.45,8.45,0,0,1,.55-2.86,24.61,24.61,0,0,1,1.26-2.88c.49-.93,1-1.77,1.45-2.54a20.8,20.8,0,0,0,1.06-1.85,2.94,2.94,0,0,0,.33-1.2,1,1,0,0,0-.23-.64,3.45,3.45,0,0,0-.59-.54l-.72-.56a2.68,2.68,0,0,1-.63-.71c-.46.74-.94,1.49-1.42,2.25s-.89,1.38-1.39,2.19-1,1.6-1.45,2.38l-1-.78,6-9.33.81.42c0,.11-.1.29-.19.53a2.45,2.45,0,0,0-.12.78,1.76,1.76,0,0,0,.1.6,1.23,1.23,0,0,0,.4.54c.74.67,1.33,1.18,1.75,1.55a11.84,11.84,0,0,1,.94.86,1.76,1.76,0,0,1,.36.53,2,2,0,0,1,.07.54,4,4,0,0,1-.11.81,9.42,9.42,0,0,1-.38,1.14c-.18.44-.42,1-.72,1.57s-.7,1.31-1.16,2.1l-.82,1.46c-.27.5-.51,1-.72,1.49a9.64,9.64,0,0,0-.52,1.51,5.71,5.71,0,0,0-.19,1.44,2,2,0,0,0,.15.85,1.17,1.17,0,0,0,.4.49,1.55,1.55,0,0,0,.55.22,2.76,2.76,0,0,0,.57.06,3.44,3.44,0,0,0,1.82-.55,9.65,9.65,0,0,0,1.78-1.4,17.47,17.47,0,0,0,1.7-2c.55-.74,1.07-1.48,1.57-2.24s1-1.49,1.39-2.19l1.14-1.82Z" transform="translate(-230.67 -146.06)"/><path class="cls-1" d="M349.62,180.79q-1.08,1.2-2.19,2.22a23.2,23.2,0,0,1-2.2,1.76A12.12,12.12,0,0,1,343.1,186a5.44,5.44,0,0,1-2,.43,4.61,4.61,0,0,1-2-.41,4,4,0,0,1-1.5-1.15,5.46,5.46,0,0,1-1-1.78,7.48,7.48,0,0,1-.33-2.28,9.51,9.51,0,0,1,.7-3.48,19.13,19.13,0,0,1,1.79-3.52,25.84,25.84,0,0,1,2.45-3.25,28.51,28.51,0,0,1,2.63-2.64l1.2.83-.92,1.31c-.39.56-.81,1.2-1.25,1.94s-.9,1.52-1.35,2.38a28.29,28.29,0,0,0-1.24,2.61,21.58,21.58,0,0,0-.91,2.67,10.12,10.12,0,0,0-.34,2.51,6.18,6.18,0,0,0,.09,1.07,2.82,2.82,0,0,0,.34.91,1.73,1.73,0,0,0,.62.61,2,2,0,0,0,1,.22,4.6,4.6,0,0,0,2.12-.6,13.17,13.17,0,0,0,2.4-1.64,29.87,29.87,0,0,0,2.53-2.44c.86-.92,1.71-1.92,2.55-3s1.64-2.15,2.42-3.27,1.5-2.23,2.17-3.33l1.78-3c.6-1,1.19-2,1.78-2.91l1.31.67s-.19.38-.51,1-.76,1.55-1.3,2.67-1.16,2.42-1.88,3.9l-2.27,4.7c-.79,1.66-1.61,3.37-2.43,5.11s-1.63,3.44-2.41,5.09a35.3,35.3,0,0,0,7.11-5.15,39.34,39.34,0,0,0,5.47-6.23l1,.78a33.12,33.12,0,0,1-6,6.83,52,52,0,0,1-8.66,6q-2.31,5-4.52,9a55.08,55.08,0,0,1-4.42,7,21.67,21.67,0,0,1-4.43,4.52,7.57,7.57,0,0,1-4.49,1.6,3.39,3.39,0,0,1-2.51-1,3.89,3.89,0,0,1-1-2.87,8.09,8.09,0,0,1,.7-3.2,16.17,16.17,0,0,1,1.92-3.3,26,26,0,0,1,2.9-3.28,39.29,39.29,0,0,1,3.68-3.13c1.32-1,2.72-2,4.17-2.87s2.94-1.74,4.44-2.5c.39-.82.81-1.68,1.25-2.58l1.31-2.61c.43-.85.84-1.65,1.24-2.4S349.33,181.29,349.62,180.79ZM343.5,193a55.21,55.21,0,0,0-5.94,4.21,47.3,47.3,0,0,0-4.76,4.43,25.06,25.06,0,0,0-3.16,4.1A6.75,6.75,0,0,0,328.5,209a2,2,0,0,0,.51,1.42,1.8,1.8,0,0,0,1.33.53,4.19,4.19,0,0,0,2.24-.74,11.28,11.28,0,0,0,2.31-2,24.5,24.5,0,0,0,2.29-3c.76-1.16,1.51-2.4,2.24-3.73s1.45-2.71,2.13-4.14S342.89,194.38,343.5,193Z" transform="translate(-230.67 -146.06)"/></svg>