<?xml version="1.0" encoding="utf-8"?>
<!-- Generator: Adobe Illustrator 25.1.0, SVG Export Plug-In . SVG Version: 6.00 Build 0)  -->
<svg version="1.1" id="Layer_1" xmlns="http://www.w3.org/2000/svg" xmlns:xlink="http://www.w3.org/1999/xlink" x="0px" y="0px"
	 viewBox="0 0 781.7 638.3" style="enable-background:new 0 0 781.7 638.3;" xml:space="preserve">
<style type="text/css">
	.st0{fill:#F2F2F2;}
	.st1{fill:#4F4F4F;}
	.st2{fill:#020202;}
	.st3{fill:#E6E6E6;}
	.st4{fill:#FFFFFF;}
	.st5{fill:#2F2E41;}
	.st6{fill:#A8A8A8;}
	.st7{fill:#6C63FF;}
	.st8{fill:#232323;}
</style>
<path class="st0" d="M114.7,544.1c49.3-25.6,151.3-68.5,280.1-68.5s230.7,42.9,280.1,68.5c48,24.9,86.7,54.3,104.9,78.2
	c6.6-9-3.1-169.6-30-233.3C668.9,197.6,481.3,73.2,273.6,73.4c-73-0.2-143,28.8-194.5,80.6c-1.1,1.1-2.2,2.2-3.2,3.3
	C18.9,216.1-7.8,298.1,2,379.5c6.9,58,24,179.2,48.1,204.9C70.4,569.2,92.1,555.7,114.7,544.1z"/>
<circle class="st1" cx="484.3" cy="75.2" r="73.7"/>
<ellipse class="st0" cx="400.5" cy="498.2" rx="82" ry="17.1"/>
<path class="st2" d="M483.8,111.9c-75.1,0-134-13.6-134-31c0-10.4,20.9-19.7,57.2-25.5c0.5-0.1,1.1,0.3,1.2,0.8
	c0.1,0.5-0.3,1.1-0.8,1.2l0,0l0,0c-34.3,5.5-55.5,14.5-55.5,23.5c0,15.7,60.4,29,132,29s132-13.3,132-29c0-9.1-21.4-18.1-55.9-23.6
	c-0.5-0.1-0.9-0.6-0.8-1.1c0.1-0.5,0.6-0.9,1.1-0.8c0,0,0,0,0,0l0,0l0,0c36.6,5.8,57.6,15.1,57.6,25.6
	C617.8,98.3,558.9,111.9,483.8,111.9z"/>
<path class="st2" d="M489.1,100c-64.7,38.1-122.4,56.3-131.2,41.3c-5.3-9,8-27.6,36.4-51c0.4-0.4,1.1-0.3,1.4,0.1s0.3,1.1-0.1,1.4
	l0,0l0,0l0,0c-26.8,22.1-40.5,40.7-35.9,48.5c8,13.5,66.8-5.7,128.5-42s107-78.4,99-92c-4.6-7.8-27.7-4.8-60.1,8
	c-0.5,0.2-1.1,0-1.3-0.6c-0.2-0.5,0-1.1,0.6-1.3l0,0l0,0c34.5-13.6,57.3-16.2,62.6-7.2C597.7,20.3,553.9,61.9,489.1,100z"/>
<ellipse class="st3" cx="402.8" cy="498.1" rx="55.6" ry="9.2"/>
<ellipse class="st0" cx="217.5" cy="585.2" rx="93.6" ry="19.5"/>
<ellipse class="st0" cx="598.5" cy="609.2" rx="139.5" ry="29.1"/>
<ellipse class="st3" cx="217.2" cy="584.6" rx="71.7" ry="11.9"/>
<ellipse class="st3" cx="598.6" cy="607.4" rx="122.6" ry="20.3"/>
<circle class="st4" cx="57.8" cy="316.9" r="7"/>
<circle class="st4" cx="547.8" cy="418.9" r="7"/>
<path class="st5" d="M308.7,195c17,4.8,16.3,15,36.5,15s36.5,2.7,36.5-15s-8-50.5-36.5-49C314.6,147.6,298.4,192,308.7,195z"/>
<path class="st6" d="M264,344.6c-2.8-5.3-0.7-11.7,4.5-14.5c0.6-0.3,1.1-0.5,1.7-0.7l41.8-88.5l19.1,13.4l-47.1,82.7
	c1.4,5.8-2.1,11.6-7.9,13.1C271.3,351.3,266.3,349.1,264,344.6L264,344.6z"/>
<path class="st7" d="M299.8,252.7c-0.4-1.3-0.2-2.8,0.6-4l13-20.4c3-6.7,10.9-9.8,17.7-6.8c6.7,3,9.8,10.9,6.8,17.6l-6.5,23.4
	c-0.7,2.6-3.4,4.1-5.9,3.3c-0.2-0.1-0.4-0.1-0.7-0.2l-22.2-9.9C301.2,255.1,300.2,254,299.8,252.7z"/>
<polygon class="st6" points="415.8,515.6 404.3,519.8 382.7,477.3 399.7,471.1 "/>
<path class="st5" d="M394.9,519.5l22.2-8.1l0,0l5.1,14l0,0L386,538.6l0,0C383.2,530.8,387.2,522.3,394.9,519.5z"/>
<path class="st5" d="M384.4,488.7l-43.9-76.8c-0.9-1.5-0.8-3.4,0.1-4.9l19.8-32.9c1.4-2.3,4.3-3,6.6-1.7c1,0.6,1.7,1.5,2.1,2.5
	l37.4,103.5c0.9,2.3-0.2,4.9-2.5,6l-13.2,6.3c-0.6,0.3-1.3,0.5-2,0.5C386.9,491.2,385.3,490.2,384.4,488.7z"/>
<circle class="st6" cx="343.7" cy="184.5" r="24.6"/>
<path class="st1" d="M308.7,295.7c-19.3-42.9,0.2-66.9,9.4-75.2c2.7-2.4,6.1-3.7,9.7-3.7h34.6c8.1,0,14.6,6.5,14.6,14.6
	c0,2.3-0.5,4.5-1.5,6.5l-23.1,46.3l-43.5,12L308.7,295.7z"/>
<polygon class="st6" points="336.7,527.2 324.4,527.2 318.6,479.9 336.7,479.9 "/>
<path class="st5" d="M315.7,523.7h23.6v14.9h-38.5C300.8,530.3,307.5,523.7,315.7,523.7L315.7,523.7z"/>
<path class="st5" d="M331.5,509.1l-19.6-2.3c-2.6-0.3-4.5-2.7-4.2-5.3c0,0,0-0.1,0-0.1l17.5-131.9c0.1-0.5,0-0.9-0.1-1.4l-17.6-72.6
	c-0.3-1.4-0.1-2.8,0.8-3.9c2.7-3.8,12.1-12.5,39.9-12.7h0c1.9,0,3.6,1.1,4.4,2.8l3.7,8.2c0.3,0.6,0.7,1.1,1.3,1.5
	c5.1,3.6,29.9,23.9,15.3,68.5c-14.3,43.8-32.6,128.9-36.1,145.5c-0.5,2.2-2.4,3.8-4.7,3.8C331.9,509.2,331.7,509.1,331.5,509.1z"/>
<path class="st6" d="M429.1,190.6c0,0.6,0.1,1.1,0.3,1.6L396.1,229l-11.8-2.5l-6.2,17.3l20.4,6.5c3.4,1.1,7.1-0.2,9.1-3.2l31.5-46.8
	c5.8,0.3,10.7-4.2,11-10c0.3-5.8-4.2-10.7-10-11c-5.8-0.3-10.7,4.2-11,10C429.1,189.8,429.1,190.2,429.1,190.6L429.1,190.6z"/>
<path class="st1" d="M395.1,230.5l-7.7,21.4c-0.8,2.3-3.4,3.5-5.8,2.7c-0.2-0.1-0.4-0.2-0.6-0.3L361,243.6c-6.5-2.4-9.8-9.6-7.4-16
	c2.4-6.5,9.5-9.8,16-7.4l22.1,4.5c2.4,0.5,4,2.9,3.5,5.3C395.2,230.1,395.1,230.3,395.1,230.5L395.1,230.5z"/>
<path class="st5" d="M373.7,183H364l-4.3-12l-0.9,12h-4.6l-2.5-7l-0.5,7c-12.2,5.1-23.7,5.3-34.5,0c0-14.4,11.6-26,26-26h5
	C362.1,157,373.7,168.6,373.7,183z"/>
<path class="st4" d="M114.3,439.9h-3.5v-3.5c0-2.5-2-4.5-4.5-4.5s-4.5,2-4.5,4.5v3.5h-3.5c-2.5,0-4.5,2-4.5,4.5s2,4.5,4.5,4.5h3.5
	v3.5c0,2.5,2,4.5,4.5,4.5s4.5-2,4.5-4.5v-3.5h3.5c2.5,0,4.5-2,4.5-4.5S116.8,439.9,114.3,439.9z"/>
<path d="M629.4,354.1h-1.8v-1.8c0-1.3-1.1-2.3-2.3-2.3c-1.3,0-2.3,1-2.3,2.3v1.8h-1.8c-1.3,0-2.3,1.1-2.3,2.3c0,1.3,1,2.3,2.3,2.3
	h1.8v1.8c0,1.3,1.1,2.3,2.3,2.3c1.3,0,2.3-1,2.3-2.3v-1.8h1.8c1.3,0,2.3-1,2.3-2.3S630.7,354.1,629.4,354.1L629.4,354.1z"/>
<path d="M98.4,233.1h-1.8v-1.8c0-1.3-1-2.3-2.3-2.3c-1.3,0-2.3,1-2.3,2.3l0,0v1.8h-1.8c-1.3,0-2.3,1-2.3,2.3c0,1.3,1,2.3,2.3,2.3
	h1.8v1.8c0,1.3,1,2.3,2.3,2.3c1.3,0,2.3-1,2.3-2.3v-1.8h1.8c1.3,0,2.3-1,2.3-2.3S99.8,233.1,98.4,233.1L98.4,233.1L98.4,233.1
	L98.4,233.1z"/>
<path class="st4" d="M233.4,233.1h-1.8v-1.8c0-1.3-1-2.3-2.3-2.3c-1.3,0-2.3,1-2.3,2.3l0,0v1.8h-1.8c-1.3,0-2.3,1-2.3,2.3
	c0,1.3,1,2.3,2.3,2.3h1.8v1.8c0,1.3,1,2.3,2.3,2.3c1.3,0,2.3-1,2.3-2.3v-1.8h1.8c1.3,0,2.3-1,2.3-2.3S234.8,233.1,233.4,233.1
	L233.4,233.1L233.4,233.1L233.4,233.1z"/>
<path class="st4" d="M698.4,473.1h-1.8v-1.8c0-1.3-1.1-2.3-2.3-2.3c-1.3,0-2.3,1-2.3,2.3v1.8h-1.8c-1.3,0-2.3,1.1-2.3,2.3
	c0,1.3,1,2.3,2.3,2.3h1.8v1.8c0,1.3,1.1,2.3,2.3,2.3c1.3,0,2.3-1,2.3-2.3v-1.8h1.8c1.3,0,2.3-1.1,2.3-2.3
	C700.8,474.1,699.7,473.1,698.4,473.1z"/>
<path class="st4" d="M488.4,278.1h-1.8v-1.8c0-1.3-1.1-2.3-2.3-2.3c-1.3,0-2.3,1-2.3,2.3v1.8h-1.8c-1.3,0-2.3,1.1-2.3,2.3
	c0,1.3,1,2.3,2.3,2.3h1.8v1.8c0,1.3,1.1,2.3,2.3,2.3c1.3,0,2.3-1,2.3-2.3v-1.8h1.8c1.3,0,2.3-1,2.3-2.3S489.7,278.1,488.4,278.1
	L488.4,278.1z"/>
<path class="st4" d="M167.4,328.1h-1.8v-1.8c0-1.3-1-2.3-2.3-2.3c-1.3,0-2.3,1-2.3,2.3l0,0v1.8h-1.8c-1.3,0-2.3,1-2.3,2.3
	c0,1.3,1,2.3,2.3,2.3l0,0h1.8v1.8c0,1.3,1,2.3,2.3,2.3c1.3,0,2.3-1,2.3-2.3v-1.8h1.8c1.3,0,2.3-1,2.3-2.3
	C169.8,329.1,168.7,328.1,167.4,328.1L167.4,328.1z"/>
<path class="st4" d="M173.4,162.1h-1.8v-1.8c0-1.3-1-2.3-2.3-2.3c-1.3,0-2.3,1-2.3,2.3l0,0v1.8h-1.8c-1.3,0-2.3,1-2.3,2.3
	c0,1.3,1,2.3,2.3,2.3h1.8v1.8c0,1.3,1,2.3,2.3,2.3c1.3,0,2.3-1,2.3-2.3v-1.8h1.8c1.3,0,2.3-1,2.3-2.3
	C175.8,163.1,174.7,162.1,173.4,162.1L173.4,162.1L173.4,162.1z"/>
<path class="st8" d="M484.3,97.5c-72.4-36.6-133.2-24.7-134-31c0-10.4,20.9-19.7,57.2-25.5c0.5-0.1,1.1,0.3,1.2,0.8
	c0.1,0.5-0.3,1.1-0.8,1.2l0,0l0,0c-34.3,5.5-55.5,14.5-55.5,23.5c0,15.7,60.4,29,132,29s132-13.3,132-29c0-9.1-21.4-18.1-55.9-23.6
	c-0.5-0.1-0.9-0.6-0.8-1.1c0.1-0.5,0.6-0.9,1.1-0.8l0,0l0,0c36.6,5.8,57.6,15.1,57.6,25.6C618.3,83.9,551.4,131.4,484.3,97.5z"/>
</svg>
